<svg width="64" height="64" viewBox="0 0 128 128" xmlns="http://www.w3.org/2000/svg">
  <rect width="128" height="128" rx="28" fill="#FAF6EF"></rect>
  <g transform="translate(16,16)">
  <path d="M18 54 a6 6 0 1 1 -1.5 -9.5" fill="none" stroke="#FF5C39" stroke-width="4.2" stroke-linecap="round"/>
  <rect x="29" y="70" width="10" height="14" rx="5" fill="#FF5C39"/>
  <rect x="55" y="70" width="10" height="14" rx="5" fill="#FF5C39"/>
  <ellipse cx="47" cy="56" rx="31" ry="25" fill="#FF5C39"/>
  <rect x="70" y="47.5" width="20" height="17" rx="8.5" fill="#FF5C39"/>
  <circle cx="81" cy="56" r="2.3" fill="#FAF6EF"/>
  <circle cx="86.5" cy="56" r="2.3" fill="#FAF6EF"/>
  <path d="M54 33.5 Q58 21.5 67 24.5 Q71.5 27.5 64.5 36 Z" fill="#FF5C39"/>
  <circle cx="60.5" cy="49" r="3" fill="#FAF6EF"/>
  <rect x="36" y="34" width="15" height="4.6" rx="2.3" fill="#FAF6EF"/>
  <circle cx="43" cy="16.5" r="8.8" fill="#FF5C39"/>
  <rect x="41.2" y="11.8" width="3.6" height="9.4" rx="1.8" fill="#FAF6EF"/>
</g>
</svg>